# xmcd
#
# Track frame offsets:
#	150
#	14804
#	30129
#	43803
#	59930
#	77685
#	94016
#	108321
#	123656
#	148035
#	168751
#	181593
#	190504
#	206861
#	222141
#
# Disc length: 3224 seconds
# Revision: 0
# Processed by: cddbd v1.5.2PL0 Copyright (c) Steve Scherf et al.
# Submitted via: dBpowerAMP V12.0
#
DISCID=cf0c960f
DTITLE=Norman Blake • Nancy Blake - Back Home in Sulphur Springs
DYEAR=2005
DGENRE=Country
TTITLE0=More Good Women Gone Wrong
TTITLE1=Columbus Stockade Blues
TTITLE2=He's Coming to Us Dead
TTITLE3=The Girl I Left in Sunny Tennessee
TTITLE4=We Parted by the Riverside
TTITLE5=Ella Ree
TTITLE6=Happy Little Home in Arkansas
TTITLE7=Back Home in Sulphur Springs
TTITLE8=The Mermaid
TTITLE9=Take Me Home Poor Julia
TTITLE10=Seaboard Airline Rag
TTITLE11=Star Spangled Banner
TTITLE12=The Empress of Ireland
TTITLE13=Katy Cline
TTITLE14=Dpm't Be Afraid of the Neo-Cons
EXTD=
EXTT0=
EXTT1=
EXTT2=
EXTT3=
EXTT4=
EXTT5=
EXTT6=
EXTT7=
EXTT8=
EXTT9=
EXTT10=
EXTT11=
EXTT12=
EXTT13=
EXTT14=
PLAYORDER=
